<svg width="600" height="400" viewBox="0 0 600 400" fill="none" xmlns="http://www.w3.org/2000/svg">
  <rect width="600" height="400" fill="white" fill-opacity="0.01"/>
  
  <!-- Building -->
  <rect x="150" y="100" width="300" height="250" rx="5" fill="#E8F5E9"/>
  
  <!-- Windows -->
  <rect x="180" y="130" width="60" height="40" rx="2" fill="#C8E6C9"/>
  <rect x="270" y="130" width="60" height="40" rx="2" fill="#C8E6C9"/>
  <rect x="360" y="130" width="60" height="40" rx="2" fill="#C8E6C9"/>
  
  <rect x="180" y="190" width="60" height="40" rx="2" fill="#C8E6C9"/>
  <rect x="270" y="190" width="60" height="40" rx="2" fill="#C8E6C9"/>
  <rect x="360" y="190" width="60" height="40" rx="2" fill="#C8E6C9"/>
  
  <!-- Door -->
  <rect x="270" y="260" width="60" height="90" rx="2" fill="#4CAF50"/>
  <circle cx="315" cy="305" r="5" fill="#C8E6C9"/>
  
  <!-- Camera -->
  <circle cx="300" cy="70" r="20" fill="#4CAF50"/>
  <circle cx="300" cy="70" r="10" fill="#388E3C"/>
  <circle cx="305" cy="65" r="3" fill="white" fill-opacity="0.7"/>
  
  <!-- Connection Lines -->
  <path d="M300 90L300 260" stroke="#4CAF50" stroke-width="2" stroke-dasharray="4 4"/>
  
  <!-- Smart Lock -->
  <rect x="330" y="290" width="20" height="30" rx="2" fill="#C8E6C9"/>
  <circle cx="340" cy="305" r="5" fill="#388E3C"/>
  
  <!-- Cloud -->
  <ellipse cx="450" cy="100" rx="50" ry="30" fill="#C8E6C9"/>
  <ellipse cx="430" cy="90" rx="30" ry="20" fill="#C8E6C9"/>
  <ellipse cx="470" cy="90" rx="30" ry="20" fill="#C8E6C9"/>
  
  <!-- Connection to Cloud -->
  <path d="M320 70L400 90" stroke="#4CAF50" stroke-width="2" stroke-dasharray="4 4"/>
  
  <!-- Mobile Device -->
  <rect x="450" y="200" width="80" height="120" rx="10" fill="#4CAF50"/>
  <rect x="460" y="220" width="60" height="80" rx="5" fill="white"/>
  <circle cx="490" cy="310" r="8" fill="#C8E6C9"/>
  
  <!-- Connection to Mobile -->
  <path d="M450 100L450 200" stroke="#4CAF50" stroke-width="2" stroke-dasharray="4 4"/>
  
  <!-- Person -->
  <circle cx="100" cy="280" r="20" fill="#4CAF50"/>
  <path d="M80 350C80 328.909 96.9086 312 118 312H122C143.091 312 160 328.909 160 350V350H80V350Z" fill="#4CAF50"/>
  
  <!-- Connection to Door -->
  <path d="M160 330L270 330" stroke="#4CAF50" stroke-width="2" stroke-dasharray="4 4"/>
</svg> 