<?xml version="1.0" encoding="UTF-8"?>
<svg width="500" height="400" viewBox="0 0 500 400" fill="none" xmlns="http://www.w3.org/2000/svg">
  <!-- Building Base -->
  <rect x="100" y="100" width="300" height="250" fill="#E3F2FD" stroke="#2196F3" stroke-width="2"/>
  
  <!-- Windows -->
  <g fill="#BBDEFB">
    <!-- Left side windows -->
    <rect x="120" y="120" width="40" height="40" rx="4"/>
    <rect x="120" y="170" width="40" height="40" rx="4"/>
    <rect x="120" y="220" width="40" height="40" rx="4"/>
    
    <!-- Right side windows -->
    <rect x="340" y="120" width="40" height="40" rx="4"/>
    <rect x="340" y="170" width="40" height="40" rx="4"/>
    <rect x="340" y="220" width="40" height="40" rx="4"/>
    
    <!-- Center windows -->
    <rect x="220" y="120" width="60" height="60" rx="4"/>
    <rect x="220" y="190" width="60" height="60" rx="4"/>
  </g>
  
  <!-- IoT Elements -->
  <g fill="#4CAF50">
    <!-- Smart Lock -->
    <circle cx="150" cy="350" r="15"/>
    <path d="M145 350 L155 350" stroke="white" stroke-width="2"/>
    
    <!-- Camera -->
    <circle cx="350" cy="350" r="15"/>
    <path d="M345 350 L355 350" stroke="white" stroke-width="2"/>
    
    <!-- Sensors -->
    <circle cx="250" cy="350" r="15"/>
    <path d="M245 350 L255 350" stroke="white" stroke-width="2"/>
  </g>
  
  <!-- AI Elements -->
  <g fill="#FFC107">
    <!-- Neural Network Nodes -->
    <circle cx="200" y="150" r="8"/>
    <circle cx="300" y="150" r="8"/>
    <circle cx="250" y="200" r="8"/>
    
    <!-- Connection Lines -->
    <path d="M200 150 L300 150" stroke="#FFC107" stroke-width="2"/>
    <path d="M200 150 L250 200" stroke="#FFC107" stroke-width="2"/>
    <path d="M300 150 L250 200" stroke="#FFC107" stroke-width="2"/>
  </g>
  
  <!-- Cloud Elements -->
  <g fill="#90CAF9">
    <!-- Cloud 1 -->
    <path d="M50 100 C60 90, 70 90, 80 100 C90 90, 100 90, 110 100 C100 110, 60 110, 50 100"/>
    
    <!-- Cloud 2 -->
    <path d="M400 150 C410 140, 420 140, 430 150 C440 140, 450 140, 460 150 C450 160, 410 160, 400 150"/>
  </g>
</svg> 